<mxfile host="app.diagrams.net" modified="2021-09-15T16:00:45.022Z" agent="5.0 (Macintosh; Intel Mac OS X 10_14_6) AppleWebKit/537.36 (KHTML, like Gecko) Chrome/93.0.4577.63 Safari/537.36" etag="TGOY_i-tqcbcdUMTFTgm" version="15.2.1" type="github">
  <diagram name="Page-1" id="82e54ff1-d628-8f03-85c4-9753963a91cd">
    <mxGraphModel dx="1186" dy="764" grid="1" gridSize="10" guides="1" tooltips="1" connect="1" arrows="1" fold="1" page="1" pageScale="1" pageWidth="1100" pageHeight="850" background="none" math="0" shadow="0">
      <root>
        <mxCell id="0" />
        <mxCell id="1" parent="0" />
        <mxCell id="4lzbs-ViYztO3XQVvs8a-11" value="" style="group" vertex="1" connectable="0" parent="1">
          <mxGeometry x="30" y="50" width="1010" height="370" as="geometry" />
        </mxCell>
        <mxCell id="4ec97bd9e5d20128-1" value="" style="line;strokeWidth=2;html=1;fillColor=none;fontSize=28;fontColor=#004D99;strokeColor=#004D99;" parent="4lzbs-ViYztO3XQVvs8a-11" vertex="1">
          <mxGeometry y="180" width="1010" height="10" as="geometry" />
        </mxCell>
        <mxCell id="4ec97bd9e5d20128-5" value="Stage 1" style="shape=offPageConnector;whiteSpace=wrap;html=1;fillColor=#0075E8;fontSize=15;fontColor=#FFFFFF;size=0.5093750000000015;verticalAlign=top;strokeColor=none;" parent="4lzbs-ViYztO3XQVvs8a-11" vertex="1">
          <mxGeometry x="80" y="120" width="160" height="40" as="geometry" />
        </mxCell>
        <mxCell id="4ec97bd9e5d20128-6" value="&lt;span&gt;Stage 3&lt;/span&gt;" style="shape=offPageConnector;whiteSpace=wrap;html=1;fillColor=#0075E8;fontSize=15;fontColor=#FFFFFF;size=0.5093750000000015;verticalAlign=top;strokeColor=none;" parent="4lzbs-ViYztO3XQVvs8a-11" vertex="1">
          <mxGeometry x="533" y="120" width="160" height="40" as="geometry" />
        </mxCell>
        <mxCell id="4ec97bd9e5d20128-7" value="&lt;span&gt;Stage 2&lt;/span&gt;" style="shape=offPageConnector;whiteSpace=wrap;html=1;fillColor=#0075E8;fontSize=15;fontColor=#FFFFFF;size=0.4178571428571445;flipV=1;verticalAlign=bottom;strokeColor=none;spacingBottom=4;" parent="4lzbs-ViYztO3XQVvs8a-11" vertex="1">
          <mxGeometry x="307" y="205" width="160" height="35" as="geometry" />
        </mxCell>
        <mxCell id="4ec97bd9e5d20128-9" value="" style="ellipse;whiteSpace=wrap;html=1;fillColor=#61BAFF;fontSize=28;fontColor=#004D99;strokeWidth=3;strokeColor=#004D99;" parent="4lzbs-ViYztO3XQVvs8a-11" vertex="1">
          <mxGeometry x="150" y="175" width="20" height="20" as="geometry" />
        </mxCell>
        <mxCell id="4ec97bd9e5d20128-10" value="" style="ellipse;whiteSpace=wrap;html=1;fillColor=#61BAFF;fontSize=28;fontColor=#004D99;strokeWidth=3;strokeColor=#004D99;" parent="4lzbs-ViYztO3XQVvs8a-11" vertex="1">
          <mxGeometry x="377" y="175" width="20" height="20" as="geometry" />
        </mxCell>
        <mxCell id="4ec97bd9e5d20128-11" value="" style="ellipse;whiteSpace=wrap;html=1;fillColor=#61BAFF;fontSize=28;fontColor=#004D99;strokeWidth=3;strokeColor=#004D99;" parent="4lzbs-ViYztO3XQVvs8a-11" vertex="1">
          <mxGeometry x="603" y="175" width="20" height="20" as="geometry" />
        </mxCell>
        <mxCell id="4ec97bd9e5d20128-14" value="&lt;h1&gt;需求管理&lt;/h1&gt;&lt;div&gt;接收需求的途径&lt;/div&gt;&lt;div&gt;需求评估机制&lt;/div&gt;&lt;div&gt;&lt;br&gt;&lt;/div&gt;" style="text;html=1;spacing=5;spacingTop=-20;whiteSpace=wrap;overflow=hidden;strokeColor=none;strokeWidth=3;fillColor=#E6E6E6;fontSize=13;fontColor=#000000;align=center;rounded=1;" parent="4lzbs-ViYztO3XQVvs8a-11" vertex="1">
          <mxGeometry x="53" y="210" width="215" height="130" as="geometry" />
        </mxCell>
        <mxCell id="4ec97bd9e5d20128-16" value="&lt;h1&gt;开发&lt;/h1&gt;&lt;div&gt;方案设计机制&lt;/div&gt;&lt;div&gt;代码开发统一规范&lt;/div&gt;&lt;div&gt;单模块开发文档&lt;/div&gt;&lt;div&gt;自测与与合入流程&lt;/div&gt;&lt;div&gt;代码review规范&lt;/div&gt;&lt;div&gt;&lt;br&gt;&lt;/div&gt;&lt;div&gt;&lt;br&gt;&lt;/div&gt;&lt;p&gt;&lt;br&gt;&lt;/p&gt;" style="text;html=1;spacing=5;spacingTop=-20;whiteSpace=wrap;overflow=hidden;strokeColor=none;strokeWidth=3;fillColor=#E6E6E6;fontSize=13;fontColor=#000000;align=center;rounded=1;" parent="4lzbs-ViYztO3XQVvs8a-11" vertex="1">
          <mxGeometry x="279" y="10" width="215" height="140" as="geometry" />
        </mxCell>
        <mxCell id="4ec97bd9e5d20128-17" value="&lt;h1&gt;上线&lt;/h1&gt;&lt;div&gt;上线前的测试&lt;/div&gt;&lt;div&gt;代码上线流程&lt;/div&gt;&lt;div&gt;conf更新流程&lt;/div&gt;&lt;div&gt;回滚流程&lt;/div&gt;&lt;div&gt;&lt;br&gt;&lt;/div&gt;&lt;div&gt;&lt;br&gt;&lt;/div&gt;" style="text;html=1;spacing=5;spacingTop=-20;whiteSpace=wrap;overflow=hidden;strokeColor=none;strokeWidth=3;fillColor=#E6E6E6;fontSize=13;fontColor=#000000;align=center;rounded=1;" parent="4lzbs-ViYztO3XQVvs8a-11" vertex="1">
          <mxGeometry x="505" y="210" width="215" height="160" as="geometry" />
        </mxCell>
        <mxCell id="4lzbs-ViYztO3XQVvs8a-7" value="" style="ellipse;whiteSpace=wrap;html=1;fillColor=#61BAFF;fontSize=28;fontColor=#004D99;strokeWidth=3;strokeColor=#004D99;" vertex="1" parent="4lzbs-ViYztO3XQVvs8a-11">
          <mxGeometry x="860" y="175" width="20" height="20" as="geometry" />
        </mxCell>
        <mxCell id="4lzbs-ViYztO3XQVvs8a-9" value="&lt;span&gt;Stage 4&lt;/span&gt;" style="shape=offPageConnector;whiteSpace=wrap;html=1;fillColor=#0075E8;fontSize=15;fontColor=#FFFFFF;size=0.4178571428571445;flipV=1;verticalAlign=bottom;strokeColor=none;spacingBottom=4;" vertex="1" parent="4lzbs-ViYztO3XQVvs8a-11">
          <mxGeometry x="790" y="210" width="160" height="35" as="geometry" />
        </mxCell>
        <mxCell id="4lzbs-ViYztO3XQVvs8a-10" value="&lt;h1&gt;&lt;span&gt;维护&lt;/span&gt;&lt;/h1&gt;&lt;div&gt;模块负责人机制&lt;/div&gt;&lt;div&gt;完善的监控机制&lt;/div&gt;完善的报警机制&lt;div&gt;值班表以及职责&lt;/div&gt;&lt;div&gt;&lt;br&gt;&lt;/div&gt;&lt;div&gt;&lt;br&gt;&lt;/div&gt;&lt;div&gt;&lt;br&gt;&lt;/div&gt;&lt;div&gt;&lt;br&gt;&lt;/div&gt;&lt;div&gt;&lt;br&gt;&lt;/div&gt;" style="text;html=1;spacing=5;spacingTop=-20;whiteSpace=wrap;overflow=hidden;strokeColor=none;strokeWidth=3;fillColor=#E6E6E6;fontSize=13;fontColor=#000000;align=center;rounded=1;" vertex="1" parent="4lzbs-ViYztO3XQVvs8a-11">
          <mxGeometry x="762.5" width="215" height="160" as="geometry" />
        </mxCell>
      </root>
    </mxGraphModel>
  </diagram>
</mxfile>
